<svg width="489" height="512" viewBox="0 0 489 512" fill="none" xmlns="http://www.w3.org/2000/svg">
<path d="M246.104 214.343C305.615 205.157 319.615 295.096 251.16 304.251C190.992 309.187 176.522 225.731 246.104 214.343Z" fill="url(#paint0_linear_201_40)"/>
<path d="M97.0058 200.189C92.2584 215.154 92.9158 283.804 102.726 292.111C164.695 283.604 137.247 202.564 97.0058 200.189Z" fill="url(#paint1_linear_201_40)"/>
<path d="M277.415 342.132C274.938 347.043 275.979 369.407 275.979 369.407C275.979 369.407 274.364 384.822 272.528 397.346C276.1 399.147 288.875 390.471 290.677 386.899C292.478 383.328 292.567 357.613 292.567 357.613C292.567 357.613 304.201 355.641 308.463 351.631C312.726 347.62 310.971 337.776 308.296 335.307C305.621 332.838 279.891 337.221 277.415 342.132Z" fill="url(#paint2_linear_201_40)"/>
<path fill-rule="evenodd" clip-rule="evenodd" d="M97.0058 200.189C137.247 202.564 164.695 283.604 102.726 292.111C75.8739 297.609 109.105 322.768 118.491 324.142C117.488 334.007 116.641 348.908 116.528 364.03C116.354 387.283 117.915 411.057 123.311 417.85C132.216 429.061 243.123 430.115 252.521 428.135C257.511 427.084 264.975 421.439 272.152 416.012C278.493 411.217 284.611 406.592 288.6 405.452C290.29 404.969 292.173 404.584 294.206 404.168C302.403 402.492 313.019 400.322 323.092 389.247C330.904 380.657 331.919 364.528 332.7 352.105C333.176 344.54 333.565 338.35 335.35 336.071C337.282 333.605 341.521 336.436 347.038 340.12C354.991 345.431 365.601 352.515 375.782 348.062C404.633 346.372 472.422 206.404 411.221 122.34C377.395 75.0418 162.769 64.2382 113.686 161.562C110.457 170.942 115.997 174.46 117.212 175.103C113.902 173.496 75.9765 155.825 97.0058 200.189ZM246.104 214.343C305.615 205.157 319.615 295.096 251.16 304.251C190.992 309.187 176.522 225.731 246.104 214.343ZM277.415 342.132C274.938 347.043 275.979 369.407 275.979 369.407C275.979 369.407 274.364 384.822 272.528 397.346C276.1 399.147 288.875 390.471 290.677 386.899C292.478 383.328 292.567 357.613 292.567 357.613C292.567 357.613 304.201 355.641 308.463 351.631C312.726 347.62 310.971 337.776 308.296 335.307C305.621 332.838 279.891 337.221 277.415 342.132ZM167.633 274.447C167.633 274.447 217.965 333.429 167.028 320.061C120.7 331.976 167.633 274.447 167.633 274.447Z" fill="#C4C4C4"/>
<path d="M167.633 274.447C167.633 274.447 217.965 333.429 167.028 320.061C120.7 331.976 167.633 274.447 167.633 274.447Z" fill="url(#paint3_linear_201_40)"/>
<path d="M125.903 185.083C128.369 186.326 131.376 185.336 132.619 182.87C133.863 180.404 132.872 177.398 130.406 176.154L125.903 185.083ZM118.491 324.142L123.466 324.648C123.736 321.985 121.863 319.582 119.216 319.194L118.491 324.142ZM123.311 417.85L119.396 420.96L123.311 417.85ZM252.521 428.135L251.49 423.242L251.49 423.242L252.521 428.135ZM288.6 405.452L287.226 400.644L287.226 400.644L288.6 405.452ZM323.092 389.247L326.791 392.612L326.791 392.611L323.092 389.247ZM335.35 336.071L339.286 339.154L339.286 339.154L335.35 336.071ZM375.782 348.062L375.49 343.07C374.899 343.105 374.32 343.244 373.778 343.481L375.782 348.062ZM411.221 122.34L407.153 125.248C407.162 125.26 407.17 125.271 407.178 125.283L411.221 122.34ZM113.686 161.562L109.222 159.31C109.12 159.512 109.032 159.721 108.958 159.934L113.686 161.562ZM117.44 175.215L119.692 170.751L119.692 170.75L117.44 175.215ZM246.104 214.343L245.341 209.402C245.326 209.404 245.311 209.407 245.296 209.409L246.104 214.343ZM251.16 304.251L251.568 309.235C251.653 309.228 251.738 309.219 251.822 309.207L251.16 304.251ZM216.079 183.981C213.443 184.805 211.974 187.609 212.798 190.245C213.621 192.881 216.426 194.35 219.062 193.526L216.079 183.981ZM300.397 208.342C302.282 210.36 305.446 210.467 307.464 208.582C309.482 206.697 309.589 203.533 307.704 201.515L300.397 208.342ZM167.633 274.447L171.437 271.201C170.474 270.073 169.061 269.431 167.578 269.447C166.095 269.463 164.696 270.137 163.759 271.286L167.633 274.447ZM167.028 320.061L168.298 315.224C167.474 315.008 166.608 315.006 165.783 315.218L167.028 320.061ZM275.979 369.407L280.952 369.928C280.978 369.678 280.985 369.426 280.973 369.175L275.979 369.407ZM145.118 342.372C145.143 339.611 142.924 337.353 140.162 337.329C137.401 337.305 135.143 339.523 135.119 342.285L145.118 342.372ZM161.329 393.489C161.254 396.249 163.431 398.548 166.191 398.623C168.951 398.699 171.25 396.522 171.325 393.762L161.329 393.489ZM172.606 346.808C172.681 344.048 170.504 341.749 167.744 341.674C164.983 341.599 162.684 343.775 162.609 346.536L172.606 346.808ZM134.728 390.814C134.707 393.575 136.93 395.83 139.691 395.85C142.452 395.87 144.707 393.648 144.727 390.887L134.728 390.814ZM200.33 347.385C200.424 344.625 198.263 342.312 195.503 342.218C192.743 342.124 190.43 344.285 190.336 347.045L200.33 347.385ZM188.921 394.306C188.851 397.067 191.032 399.361 193.793 399.431C196.553 399.501 198.848 397.32 198.918 394.559L188.921 394.306ZM225.596 347.296C225.716 344.537 223.577 342.203 220.818 342.083C218.06 341.963 215.726 344.102 215.606 346.861L225.596 347.296ZM214.201 396.431C214.167 399.192 216.379 401.457 219.14 401.491C221.901 401.524 224.167 399.313 224.2 396.552L214.201 396.431ZM254.002 345.35C254.105 342.591 251.951 340.27 249.192 340.168C246.432 340.065 244.112 342.219 244.009 344.978L254.002 345.35ZM242.266 396.211C242.182 398.972 244.351 401.278 247.111 401.362C249.871 401.447 252.177 399.278 252.262 396.518L242.266 396.211ZM292.567 357.613L291.731 352.683C289.333 353.09 287.575 355.163 287.567 357.596L292.567 357.613ZM272.528 397.346L267.581 396.621C267.269 398.751 268.355 400.841 270.277 401.811L272.528 397.346ZM272.152 416.012L275.168 420L275.168 420L272.152 416.012ZM294.206 404.168L293.204 399.27L293.204 399.27L294.206 404.168ZM332.7 352.105L337.69 352.419L337.69 352.419L332.7 352.105ZM347.038 340.12L344.261 344.278L344.261 344.278L347.038 340.12ZM92.2399 198.677C90.8367 203.1 89.9756 210.788 89.524 219.436C89.0626 228.272 89.0066 238.67 89.4107 248.845C89.814 259 90.6808 269.069 92.1002 277.207C92.8082 281.267 93.677 284.984 94.7506 288.045C95.7544 290.907 97.1953 293.98 99.4947 295.927L105.957 288.296C105.967 288.304 105.907 288.254 105.79 288.103C105.674 287.953 105.525 287.732 105.349 287.42C104.992 286.786 104.596 285.902 104.187 284.735C103.365 282.393 102.611 279.268 101.952 275.489C100.637 267.952 99.7967 258.365 99.4028 248.448C99.0098 238.552 99.0664 228.462 99.5104 219.957C99.9642 211.265 100.801 204.76 101.772 201.7L92.2399 198.677ZM101.723 287.213C94.466 288.699 88.6454 292.062 87.6062 298.438C87.1384 301.307 87.8353 304.048 88.8851 306.364C89.9424 308.696 91.4986 310.914 93.222 312.926C96.6673 316.947 101.252 320.689 105.547 323.509C107.711 324.931 109.877 326.169 111.879 327.116C113.802 328.026 115.871 328.811 117.767 329.089L119.216 319.194C118.765 319.128 117.742 318.827 116.156 318.077C114.649 317.364 112.889 316.368 111.037 315.151C107.3 312.696 103.495 309.547 100.816 306.42C99.4773 304.857 98.5374 303.436 97.9928 302.235C97.4406 301.017 97.4296 300.33 97.4759 300.046C97.4979 299.911 97.5541 299.569 98.2847 299.028C99.1297 298.402 100.772 297.615 103.729 297.01L101.723 287.213ZM119.396 420.96C120.649 422.538 122.406 423.598 123.97 424.346C125.625 425.137 127.574 425.813 129.68 426.405C133.899 427.592 139.252 428.582 145.245 429.417C157.262 431.093 172.427 432.222 187.495 432.934C202.586 433.646 217.688 433.944 229.621 433.94C235.586 433.938 240.785 433.86 244.811 433.718C248.642 433.584 251.869 433.382 253.552 433.028L251.49 423.242C250.823 423.383 248.528 423.582 244.46 423.725C240.587 423.861 235.511 423.938 229.617 423.94C217.834 423.944 202.891 423.65 187.967 422.945C173.02 422.239 158.202 421.127 146.626 419.513C140.822 418.704 135.976 417.788 132.388 416.779C130.591 416.273 129.235 415.779 128.282 415.324C127.239 414.825 127.086 414.564 127.226 414.74L119.396 420.96ZM376.074 353.053C381.45 352.738 386.747 349.381 391.491 344.998C396.394 340.469 401.429 334.168 406.3 326.61C416.055 311.473 425.512 290.727 432.083 267.45C445.169 221.092 447.174 163.23 415.263 119.397L407.178 125.283C436.468 165.515 435.18 219.668 422.459 264.733C416.126 287.167 407.052 306.984 397.894 321.193C393.309 328.308 388.793 333.876 384.705 337.653C380.459 341.576 377.327 342.963 375.49 343.07L376.074 353.053ZM415.288 119.431C410.404 112.603 402.563 106.809 392.986 101.988C383.349 97.1368 371.612 93.1004 358.528 89.9659C332.358 83.6966 300.334 80.9256 267.898 82.7254C235.471 84.5247 202.371 90.9065 174.139 103.136C145.919 115.359 122.189 133.598 109.222 159.31L118.15 163.813C129.724 140.864 151.229 123.957 178.113 112.312C204.985 100.672 236.858 94.4631 268.452 92.71C300.036 90.9575 331.079 93.6731 356.198 99.6907C368.758 102.7 379.722 106.507 388.489 110.92C397.316 115.363 403.58 120.252 407.153 125.248L415.288 119.431ZM130.406 176.154L119.692 170.751L115.189 179.679L125.903 185.083L130.406 176.154ZM103.406 297.065C120.081 294.776 131.435 287.459 137.876 277.141C144.229 266.964 145.346 254.593 143.105 242.909C140.862 231.213 135.186 219.76 127.306 211.011C119.439 202.277 109.034 195.89 97.3004 195.197L96.7112 205.18C105.098 205.675 113.215 210.309 119.876 217.703C126.523 225.083 131.381 234.868 133.284 244.792C135.189 254.728 134.064 264.362 129.393 271.846C124.808 279.19 116.355 285.193 102.046 287.158L103.406 297.065ZM246.866 219.285C260.4 217.196 270.956 220.753 278.398 227.047C285.927 233.414 290.578 242.852 291.647 252.946C292.715 263.024 290.189 273.528 283.659 281.996C277.174 290.405 266.466 297.16 250.497 299.296L251.822 309.207C270.082 306.765 283.294 298.845 291.578 288.102C299.816 277.419 302.906 264.296 301.591 251.893C300.279 239.507 294.549 227.609 284.855 219.411C275.073 211.138 261.562 206.898 245.341 209.402L246.866 219.285ZM250.751 299.268C223.439 301.508 207.092 283.923 204.944 264.859C203.865 255.272 206.368 245.27 212.98 237.016C219.574 228.784 230.529 221.959 246.911 219.278L245.296 209.409C226.887 212.422 213.558 220.299 205.175 230.764C196.811 241.206 193.646 253.895 195.007 265.978C197.741 290.255 218.713 311.93 251.568 309.235L250.751 299.268ZM219.062 193.526C229.518 190.258 244.271 187.807 259.262 189.318C274.212 190.826 289.081 196.229 300.397 208.342L307.704 201.515C294.291 187.157 276.889 181.045 260.265 179.369C243.682 177.696 227.559 180.393 216.079 183.981L219.062 193.526ZM167.633 274.447C163.83 277.692 163.829 277.692 163.829 277.692C163.829 277.692 163.829 277.692 163.83 277.692C163.83 277.693 163.832 277.695 163.834 277.697C163.838 277.702 163.846 277.711 163.856 277.723C163.877 277.748 163.909 277.786 163.952 277.837C164.039 277.94 164.17 278.096 164.34 278.301C164.681 278.712 165.18 279.318 165.801 280.09C167.043 281.633 168.766 283.829 170.677 286.421C174.538 291.658 179.014 298.31 181.916 304.414C183.373 307.478 184.316 310.165 184.671 312.316C185.036 314.534 184.669 315.475 184.457 315.791C184.351 315.95 183.796 316.715 181.204 316.962C178.546 317.215 174.412 316.829 168.298 315.224L165.759 324.897C172.379 326.634 177.815 327.33 182.153 326.916C186.559 326.497 190.428 324.846 192.766 321.356C194.999 318.022 195.096 314.079 194.537 310.69C193.968 307.235 192.599 303.593 190.948 300.12C187.634 293.149 182.71 285.891 178.726 280.487C176.715 277.759 174.903 275.45 173.592 273.82C172.936 273.005 172.403 272.358 172.032 271.911C171.846 271.687 171.701 271.514 171.6 271.394C171.549 271.334 171.51 271.288 171.483 271.256C171.469 271.239 171.458 271.227 171.451 271.218C171.447 271.213 171.444 271.209 171.441 271.207C171.44 271.205 171.439 271.204 171.438 271.203C171.437 271.202 171.437 271.201 167.633 274.447ZM165.783 315.218C160.267 316.637 156.658 316.874 154.434 316.568C152.36 316.283 152.007 315.633 151.924 315.488C151.695 315.084 151.388 314.003 151.786 311.726C152.17 309.531 153.104 306.84 154.499 303.815C157.279 297.781 161.493 291.254 165.108 286.133C166.899 283.597 168.509 281.452 169.669 279.945C170.249 279.192 170.714 278.6 171.032 278.2C171.191 278 171.313 277.848 171.394 277.748C171.434 277.698 171.464 277.661 171.483 277.637C171.493 277.625 171.5 277.617 171.504 277.612C171.506 277.61 171.507 277.608 171.508 277.607C171.508 277.607 171.508 277.607 171.508 277.607C171.508 277.607 171.507 277.607 167.633 274.447C163.759 271.286 163.758 271.287 163.757 271.288C163.757 271.289 163.755 271.29 163.754 271.292C163.752 271.294 163.749 271.298 163.746 271.302C163.738 271.311 163.728 271.324 163.715 271.339C163.69 271.371 163.653 271.416 163.606 271.475C163.512 271.592 163.376 271.761 163.202 271.98C162.856 272.416 162.358 273.049 161.745 273.846C160.519 275.438 158.824 277.695 156.939 280.366C153.202 285.659 148.578 292.769 145.417 299.629C143.84 303.05 142.527 306.619 141.936 310.003C141.358 313.303 141.347 317.118 143.232 320.432C145.264 324.005 148.845 325.894 153.073 326.475C157.149 327.035 162.208 326.463 168.274 324.903L165.783 315.218ZM113.517 323.636C112.496 333.677 111.642 348.736 111.528 363.993L121.528 364.068C121.64 349.08 122.48 334.337 123.466 324.648L113.517 323.636ZM111.528 363.993C111.44 375.713 111.787 387.681 112.859 397.647C113.394 402.625 114.122 407.215 115.104 411.077C116.052 414.801 117.369 418.409 119.396 420.96L127.226 414.74C126.555 413.895 125.653 411.983 124.796 408.612C123.973 405.379 123.309 401.299 122.802 396.578C121.787 387.145 121.441 375.6 121.528 364.068L111.528 363.993ZM115.834 368.982C124.133 370.145 131.891 371.203 139.264 372.149L140.536 362.23C133.217 361.291 125.501 360.239 117.221 359.079L115.834 368.982ZM144.9 367.234L145.118 342.372L135.119 342.285L134.9 367.146L144.9 367.234ZM134.9 367.153L134.728 390.814L144.727 390.887L144.9 367.226L134.9 367.153ZM139.264 372.149C159.336 374.724 176.593 376.469 194.27 377.217L194.693 367.226C177.408 366.494 160.459 364.786 140.536 362.23L139.264 372.149ZM199.478 372.392L200.33 347.385L190.336 347.045L189.484 372.051L199.478 372.392ZM189.483 372.095L188.921 394.306L198.918 394.559L199.48 372.348L189.483 372.095ZM194.27 377.217C202.505 377.566 210.82 377.698 219.548 377.598L219.434 367.599C210.883 367.696 202.746 367.567 194.693 367.226L194.27 377.217ZM224.486 372.816L225.596 347.296L215.606 346.861L214.495 372.381L224.486 372.816ZM214.491 372.538L214.201 396.431L224.2 396.552L224.49 372.659L214.491 372.538ZM219.548 377.598C228.584 377.495 238.054 377.144 248.323 376.53L247.726 366.547C237.597 367.153 228.289 367.498 219.434 367.599L219.548 377.598ZM248.323 376.53C257.041 376.008 266.335 375.297 276.428 374.387L275.53 364.427C265.519 365.33 256.326 366.033 247.726 366.547L248.323 376.53ZM253.021 371.724L254.002 345.35L244.009 344.978L243.028 371.353L253.021 371.724ZM243.027 371.385L242.266 396.211L252.262 396.518L253.022 371.692L243.027 371.385ZM275.979 369.407C280.973 369.175 280.973 369.175 280.973 369.175C280.973 369.175 280.973 369.175 280.973 369.175C280.973 369.175 280.973 369.174 280.973 369.173C280.973 369.171 280.973 369.168 280.973 369.163C280.972 369.154 280.972 369.14 280.971 369.12C280.969 369.081 280.967 369.021 280.963 368.942C280.956 368.784 280.947 368.549 280.935 368.246C280.912 367.641 280.882 366.767 280.853 365.701C280.795 363.564 280.744 360.677 280.768 357.651C280.792 354.608 280.892 351.506 281.125 348.913C281.242 347.616 281.386 346.519 281.551 345.661C281.732 344.723 281.883 344.376 281.879 344.383L272.95 339.88C272.327 341.116 271.969 342.541 271.732 343.767C271.481 345.071 271.3 346.528 271.166 348.017C270.897 351 270.793 354.409 270.768 357.571C270.743 360.75 270.797 363.761 270.857 365.971C270.887 367.079 270.918 367.99 270.943 368.627C270.955 368.945 270.965 369.195 270.972 369.367C270.976 369.453 270.979 369.52 270.981 369.566C270.982 369.588 270.983 369.606 270.983 369.619C270.984 369.625 270.984 369.63 270.984 369.633C270.984 369.635 270.984 369.636 270.984 369.637C270.984 369.638 270.984 369.638 270.984 369.639C270.984 369.639 270.984 369.64 275.979 369.407ZM281.879 344.383C281.556 345.024 281.262 345.019 281.973 344.58C282.548 344.224 283.445 343.791 284.682 343.321C287.139 342.389 290.381 341.524 293.752 340.857C297.115 340.191 300.411 339.76 302.939 339.635C304.218 339.571 305.158 339.593 305.752 339.659C306.051 339.692 306.138 339.723 306.079 339.706C306.043 339.695 305.916 339.654 305.733 339.562C305.556 339.473 305.246 339.295 304.905 338.981L311.687 331.633C310.726 330.745 309.649 330.339 308.992 330.139C308.262 329.917 307.519 329.794 306.853 329.72C305.519 329.572 303.991 329.57 302.443 329.647C299.316 329.802 295.524 330.312 291.81 331.047C288.104 331.781 284.283 332.778 281.135 333.971C279.57 334.565 278.03 335.261 276.713 336.075C275.532 336.805 273.892 338.012 272.95 339.88L281.879 344.383ZM304.905 338.981C304.709 338.8 304.979 338.998 305.339 340.01C305.654 340.896 305.905 342.041 305.995 343.257C306.197 346.01 305.512 347.542 305.037 347.989L311.89 355.272C315.677 351.709 316.246 346.314 315.968 342.524C315.817 340.469 315.394 338.439 314.761 336.659C314.173 335.007 313.221 333.048 311.687 331.633L304.905 338.981ZM305.037 347.989C304.569 348.429 303.633 349.031 302.156 349.686C300.742 350.312 299.12 350.862 297.529 351.322C295.95 351.778 294.482 352.123 293.405 352.353C292.87 352.468 292.438 352.552 292.145 352.608C291.999 352.635 291.889 352.655 291.818 352.668C291.783 352.674 291.757 352.679 291.743 352.681C291.735 352.683 291.731 352.684 291.729 352.684C291.728 352.684 291.727 352.684 291.728 352.684C291.728 352.684 291.728 352.684 291.729 352.684C291.729 352.684 291.73 352.684 291.73 352.684C291.73 352.684 291.731 352.683 292.567 357.613C293.402 362.543 293.403 362.543 293.404 362.543C293.404 362.543 293.405 362.542 293.405 362.542C293.407 362.542 293.408 362.542 293.41 362.542C293.413 362.541 293.417 362.54 293.421 362.54C293.431 362.538 293.443 362.536 293.457 362.533C293.487 362.528 293.528 362.521 293.578 362.512C293.68 362.494 293.824 362.468 294.004 362.433C294.365 362.365 294.875 362.265 295.497 362.132C296.735 361.867 298.442 361.467 300.304 360.929C302.155 360.395 304.24 359.7 306.207 358.829C308.11 357.985 310.226 356.837 311.89 355.272L305.037 347.989ZM292.567 357.613C287.567 357.596 287.567 357.596 287.567 357.596C287.567 357.596 287.567 357.596 287.567 357.596C287.567 357.597 287.567 357.598 287.567 357.599C287.567 357.602 287.567 357.606 287.567 357.612C287.567 357.623 287.566 357.641 287.566 357.664C287.566 357.711 287.566 357.781 287.565 357.874C287.564 358.059 287.562 358.333 287.559 358.683C287.554 359.384 287.543 360.392 287.525 361.613C287.489 364.058 287.422 367.346 287.3 370.737C287.178 374.142 287.002 377.588 286.752 380.369C286.626 381.765 286.489 382.923 286.343 383.79C286.167 384.845 286.059 384.951 286.212 384.648L295.141 389.151C295.744 387.955 296.033 386.476 296.206 385.44C296.411 384.218 296.575 382.781 296.712 381.264C296.985 378.219 297.169 374.567 297.294 371.097C297.419 367.612 297.487 364.249 297.524 361.761C297.542 360.515 297.553 359.486 297.559 358.767C297.562 358.407 297.564 358.125 297.565 357.932C297.566 357.835 297.566 357.761 297.566 357.71C297.566 357.685 297.566 357.665 297.566 357.652C297.566 357.645 297.567 357.64 297.567 357.636C297.567 357.635 297.567 357.633 297.567 357.632C297.567 357.632 297.567 357.631 297.567 357.631C297.567 357.631 297.567 357.63 292.567 357.613ZM286.212 384.648C286.252 384.569 285.816 385.225 284.335 386.49C283.041 387.596 281.374 388.81 279.636 389.885C277.876 390.974 276.218 391.81 274.939 392.266C274.295 392.496 273.906 392.571 273.745 392.587C273.515 392.611 274.02 392.499 274.78 392.882L270.277 401.811C271.929 402.644 273.615 402.654 274.774 402.534C276.002 402.407 277.212 402.072 278.296 401.686C280.473 400.91 282.791 399.692 284.896 398.39C287.024 397.074 289.111 395.562 290.831 394.093C292.364 392.783 294.2 391.015 295.141 389.151L286.212 384.648ZM277.475 398.072C278.404 391.739 279.273 384.699 279.908 379.26C280.226 376.537 280.487 374.207 280.668 372.557C280.759 371.732 280.829 371.076 280.877 370.626C280.902 370.401 280.92 370.227 280.932 370.109C280.939 370.051 280.943 370.006 280.947 369.975C280.948 369.96 280.949 369.948 280.95 369.94C280.951 369.936 280.951 369.933 280.951 369.931C280.951 369.93 280.951 369.929 280.951 369.929C280.952 369.929 280.952 369.928 280.952 369.928C280.952 369.928 280.952 369.928 275.979 369.407C271.006 368.886 271.006 368.886 271.006 368.886C271.006 368.886 271.006 368.887 271.006 368.887C271.006 368.887 271.006 368.888 271.006 368.888C271.006 368.89 271.005 368.893 271.005 368.896C271.004 368.903 271.003 368.914 271.002 368.928C270.999 368.957 270.994 369 270.988 369.057C270.976 369.171 270.958 369.341 270.934 369.562C270.887 370.004 270.817 370.65 270.728 371.466C270.549 373.098 270.291 375.404 269.976 378.1C269.345 383.5 268.489 390.429 267.581 396.621L277.475 398.072ZM101.524 198.047C96.3324 187.095 95.3472 181.037 95.7757 178.033C95.9612 176.733 96.3707 176.277 96.5872 176.086C96.871 175.837 97.4505 175.515 98.6143 175.367C101.111 175.048 104.631 175.726 108.168 176.865C111.552 177.955 114.311 179.252 115.029 179.601L119.396 170.605C118.459 170.15 115.236 168.636 111.234 167.347C107.386 166.107 102.119 164.839 97.3491 165.447C94.8797 165.762 92.2062 166.622 89.9829 168.578C87.6923 170.592 86.3405 173.364 85.8759 176.621C85.0044 182.731 87.1646 191.101 92.4877 202.33L101.524 198.047ZM119.549 170.682C119.425 170.617 118.686 170.181 118.198 169.262C117.806 168.526 117.183 166.766 118.414 163.19L108.958 159.934C106.96 165.738 107.492 170.427 109.367 173.956C111.146 177.302 113.785 178.947 114.876 179.523L119.549 170.682ZM253.552 433.028C257.044 432.292 260.838 430.138 264.258 427.896C267.813 425.565 271.614 422.688 275.168 420L269.137 412.024C265.514 414.763 261.994 417.422 258.775 419.533C255.421 421.733 252.988 422.927 251.49 423.242L253.552 433.028ZM275.168 420C278.369 417.58 281.366 415.315 284.05 413.509C286.846 411.627 288.805 410.593 289.974 410.259L287.226 400.644C284.406 401.45 281.311 403.299 278.466 405.213C275.509 407.204 272.277 409.649 269.137 412.024L275.168 420ZM289.974 410.259C291.443 409.839 293.127 409.492 295.207 409.067L293.204 399.27C291.219 399.675 289.136 400.098 287.226 400.644L289.974 410.259ZM295.207 409.067C303.572 407.357 315.577 404.94 326.791 392.612L319.393 385.883C310.461 395.704 301.233 397.628 293.204 399.27L295.207 409.067ZM326.791 392.611C331.609 387.313 334.046 380.063 335.436 373.091C336.841 366.048 337.303 358.572 337.69 352.419L327.71 351.791C327.316 358.061 326.88 364.861 325.629 371.136C324.364 377.482 322.387 382.591 319.393 385.883L326.791 392.611ZM337.69 352.419C337.932 348.574 338.138 345.341 338.488 342.783C338.661 341.515 338.852 340.556 339.053 339.864C339.27 339.114 339.408 338.998 339.286 339.154L331.414 332.988C330.399 334.283 329.82 335.796 329.447 337.084C329.058 338.429 328.787 339.918 328.58 341.428C328.17 344.427 327.944 348.071 327.71 351.791L337.69 352.419ZM339.286 339.154C338.782 339.798 337.975 340.124 337.373 340.143C337.052 340.153 337.139 340.065 337.867 340.379C339.343 341.017 341.346 342.331 344.261 344.278L349.815 335.962C347.213 334.224 344.338 332.281 341.832 331.199C340.569 330.653 338.89 330.09 337.058 330.148C334.946 330.214 332.884 331.11 331.414 332.988L339.286 339.154ZM344.261 344.278C348.154 346.877 353.257 350.311 358.791 352.424C364.415 354.571 371.065 355.583 377.786 352.643L373.778 343.481C370.317 344.995 366.572 344.69 362.358 343.081C358.053 341.438 353.875 338.673 349.815 335.962L344.261 344.278ZM114.876 179.523C115.015 179.597 115.136 179.657 115.236 179.704C115.286 179.728 115.331 179.749 115.37 179.767C115.39 179.775 115.408 179.784 115.425 179.791C115.434 179.795 115.442 179.798 115.45 179.802C115.454 179.803 115.457 179.805 115.461 179.807C115.463 179.807 115.465 179.808 115.467 179.809C115.468 179.809 115.468 179.81 115.469 179.81C115.47 179.81 115.47 179.81 115.471 179.811C115.471 179.811 115.471 179.811 115.471 179.811C115.472 179.811 115.472 179.811 117.44 175.215C119.409 170.619 119.409 170.619 119.409 170.619C119.41 170.619 119.41 170.619 119.41 170.619C119.411 170.62 119.411 170.62 119.411 170.62C119.412 170.62 119.413 170.621 119.414 170.621C119.416 170.622 119.417 170.622 119.419 170.623C119.423 170.625 119.426 170.626 119.429 170.627C119.436 170.63 119.442 170.633 119.448 170.636C119.459 170.641 119.47 170.646 119.48 170.65C119.499 170.659 119.514 170.666 119.525 170.671C119.548 170.682 119.555 170.685 119.549 170.682L114.876 179.523ZM117.44 175.215C119.692 170.75 119.692 170.75 119.691 170.75C119.691 170.75 119.691 170.75 119.691 170.75C119.691 170.75 119.691 170.75 119.691 170.75C119.691 170.75 119.691 170.75 119.691 170.75C119.69 170.75 119.69 170.75 119.689 170.749C119.689 170.749 119.688 170.748 119.687 170.748C119.685 170.747 119.682 170.746 119.68 170.745C119.675 170.742 119.668 170.739 119.661 170.735C119.646 170.727 119.625 170.717 119.601 170.705C119.551 170.681 119.482 170.647 119.396 170.605L115.029 179.601C115.092 179.631 115.137 179.654 115.164 179.667C115.178 179.674 115.186 179.678 115.191 179.68C115.193 179.681 115.194 179.682 115.194 179.682C115.193 179.682 115.193 179.681 115.192 179.681C115.192 179.681 115.191 179.681 115.191 179.68C115.191 179.68 115.19 179.68 115.19 179.68C115.19 179.68 115.19 179.68 115.19 179.68C115.19 179.68 115.19 179.68 115.189 179.68C115.189 179.68 115.189 179.68 115.189 179.68C115.189 179.68 115.189 179.68 117.44 175.215ZM171.325 393.762L172.606 346.808L162.609 346.536L161.329 393.489L171.325 393.762Z" fill="black"/>
<path d="M345.562 228.103C326.944 245.033 333.921 296.711 346.421 303.015C358.921 309.319 382.489 283.686 396.813 279.71C411.138 275.735 408.618 228.545 403.051 221.817C397.484 215.09 364.18 211.173 345.562 228.103Z" fill="url(#paint4_linear_201_40)"/>
<path d="M327.8 385.462C337.234 373.42 342.951 336.544 334.907 334.728C326.864 332.911 316.751 347.411 308.661 359.01C300.572 370.61 286.387 398.736 293.973 403.681C301.558 408.627 318.367 397.504 327.8 385.462Z" fill="url(#paint5_linear_201_40)"/>
<defs>
<linearGradient id="paint0_linear_201_40" x1="176.795" y1="276.267" x2="433.699" y2="217.675" gradientUnits="userSpaceOnUse">
<stop/>
<stop offset="1" stop-opacity="0.71"/>
</linearGradient>
<linearGradient id="paint1_linear_201_40" x1="80.9623" y1="248.656" x2="468.21" y2="195.88" gradientUnits="userSpaceOnUse">
<stop/>
<stop offset="1" stop-opacity="0"/>
</linearGradient>
<linearGradient id="paint2_linear_201_40" x1="266.188" y1="355.51" x2="652.045" y2="446.509" gradientUnits="userSpaceOnUse">
<stop/>
<stop offset="1" stop-opacity="0"/>
</linearGradient>
<linearGradient id="paint3_linear_201_40" x1="136.651" y1="310.341" x2="690.221" y2="269.767" gradientUnits="userSpaceOnUse">
<stop/>
<stop offset="1" stop-opacity="0"/>
</linearGradient>
<linearGradient id="paint4_linear_201_40" x1="223.352" y1="262.788" x2="384.157" y2="253.728" gradientUnits="userSpaceOnUse">
<stop/>
<stop offset="1" stop-opacity="0"/>
</linearGradient>
<linearGradient id="paint5_linear_201_40" x1="350.409" y1="378.385" x2="311.332" y2="362.597" gradientUnits="userSpaceOnUse">
<stop/>
<stop offset="1" stop-opacity="0"/>
</linearGradient>
</defs>
</svg>
